REM MD5 10ec5f9315e5bde0737220ebc61795e4
FILE "SuperLite 1500 Series - Cyber Daisenryaku - Shutsugeki! Haruka-tai (Japan).bin" BINARY
  TRACK 01 MODE2/2352
    INDEX 01 00:00:00
  TRACK 02 AUDIO
    INDEX 00 09:43:73
    INDEX 01 09:45:73
  TRACK 03 AUDIO
    INDEX 00 10:09:45
    INDEX 01 10:12:45
  TRACK 04 AUDIO
    INDEX 00 10:33:16
    INDEX 01 10:36:16
  TRACK 05 AUDIO
    INDEX 00 11:49:50
    INDEX 01 11:52:50
REM LEADOUT 13:27:33
